<?xml version="1.0" encoding="utf-8"?>
<!-- Generator: Adobe Illustrator 21.0.0, SVG Export Plug-In . SVG Version: 6.00 Build 0)  -->
<svg version="1.1" id="Layer_1" xmlns="http://www.w3.org/2000/svg" xmlns:xlink="http://www.w3.org/1999/xlink" x="0px" y="0px"
	 viewBox="0 0 100 100" style="enable-background:new 0 0 100 100;" xml:space="preserve">
<style type="text/css">
	.st0{fill:#E8E462;stroke:#191919;stroke-miterlimit:10;}
	.st1{fill:#EFEFEF;}
	.st2{fill:#191919;}
	.st3{fill:#A52929;}
	.st4{fill:#E8E462;stroke:#000000;stroke-miterlimit:10;}
</style>
<g id="Layer_8">
	<path class="st0" d="M83.5,24.5c0-2.6-2.1-4.6-4.6-4.6c-0.9,0-1.7,0.3-2.4,0.7c0.3-0.6,0.4-1.2,0.4-1.9c0-2.6-2.1-4.6-4.6-4.6
		c-2,0-3.7,1.3-4.3,3.1c-0.8-0.5-1.7-0.9-2.7-0.9c-0.9,0-1.8,0.3-2.5,0.7c0-0.2,0.1-0.5,0.1-0.7c0-2.6-2.1-4.6-4.6-4.6
		c-1.7,0-3.2,1-4,2.3c-0.7-0.4-1.4-0.6-2.2-0.6c-2.6,0-4.6,2.1-4.6,4.6c0,0.2,0,0.3,0.1,0.5c-0.6-0.3-1.3-0.5-2.1-0.5
		c-0.1,0-0.2,0-0.4,0c0.2-0.5,0.4-1.1,0.4-1.8c0-2.6-2.1-4.6-4.6-4.6S36,13.6,36,16.2c0,0.1,0,0.1,0,0.2c-0.4-0.1-0.8-0.2-1.2-0.2
		c-0.3,0-0.5,0-0.7,0.1c0,0,0,0,0-0.1c0-2.6-2.1-4.6-4.6-4.6s-4.6,2.1-4.6,4.6c-2.6,0-4.6,2.1-4.6,4.6c0,0.3,0,0.5,0.1,0.8
		c-2.2,0.3-3.9,2.2-3.9,4.6c0,2.2,1.5,4,3.6,4.5l-2.3,3l29.7,7.3l24.9-4.9l8.8-4.1l-0.4-3.2C82.3,28.1,83.5,26.4,83.5,24.5z"/>
	<g>
		<path class="st1" d="M26.7,92.7c-1,0-1.8-0.7-2-1.7l-10.3-62c-0.1-0.6,0.1-1.2,0.5-1.6s0.9-0.7,1.5-0.7h67.3
			c0.6,0,1.2,0.3,1.5,0.7s0.5,1.1,0.5,1.6L75.3,91c-0.2,1-1,1.7-2,1.7C73.3,92.7,26.7,92.7,26.7,92.7z"/>
		<path class="st2" d="M83.7,27.2c0.9,0,1.7,0.8,1.5,1.8L74.8,91c-0.1,0.7-0.8,1.3-1.5,1.3H26.7c-0.7,0-1.4-0.5-1.5-1.3L14.8,29
			c-0.2-0.9,0.6-1.8,1.5-1.8L83.7,27.2 M83.7,26.2H16.3c-0.7,0-1.4,0.3-1.9,0.9c-0.5,0.6-0.7,1.3-0.6,2l10.3,62
			c0.2,1.2,1.2,2.1,2.5,2.1h46.7c1.2,0,2.3-0.9,2.5-2.1l10.3-62c0.1-0.7-0.1-1.5-0.6-2C85.1,26.5,84.4,26.2,83.7,26.2L83.7,26.2z"/>
	</g>
	<polygon class="st3" points="32.4,92.2 25.4,92.2 14.5,27.2 24.7,27.2 	"/>
	<polygon class="st3" points="46.5,92.2 39.4,92.2 34.8,27.2 44.9,27.2 	"/>
	<polygon class="st3" points="60.6,92.2 53.5,92.2 55.1,27.2 65.2,27.2 	"/>
	<polygon class="st3" points="74.6,92.2 67.6,92.2 75.3,27.2 85.5,27.2 	"/>
	<g>
		<path class="st2" d="M84.4,27.2c0.5,0,0.9,0.5,0.8,1L74.7,91.5c-0.1,0.4-0.4,0.7-0.8,0.7H26.1c-0.4,0-0.8-0.3-0.8-0.7L14.7,28.2
			c-0.1-0.5,0.3-1,0.8-1L84.4,27.2 M84.4,26.2H15.6c-0.5,0-1.1,0.2-1.4,0.7c-0.4,0.4-0.5,1-0.4,1.5l10.5,63.3
			c0.1,0.9,0.9,1.6,1.8,1.6h47.8c0.9,0,1.7-0.7,1.8-1.6l10.5-63.3c0.1-0.5-0.1-1.1-0.4-1.5C85.5,26.5,85,26.2,84.4,26.2L84.4,26.2z"
			/>
	</g>
</g>
<path class="st4" d="M37.4,70.4c0,12.6,10.2,22.8,22.8,22.8c12.6,0,22.8-10.2,22.8-22.8c0-4.3-1.8-9.8-3.3-12.1
	c-1.3-2-1.7-3.3-1.7-5.1c0-3.9,4.1-7.8,8.4-7.8H87c1.5,0,2.8-1.2,2.8-2.8c0-1.5-1.2-2.8-2.8-2.8h-0.6c-6.9,0-12.7,3.7-14.1,11.1
	c-2.9-2.2-7.3-3.3-12.1-3.3C47.7,47.5,37.4,57.8,37.4,70.4z M57.5,70.4c0-1.5,1.2-2.8,2.8-2.8c1.5,0,2.8,1.2,2.8,2.8
	c0,1.5-1.2,2.8-2.8,2.8C58.7,73.2,57.5,71.9,57.5,70.4z M43,70.4c0-2.8,2.2-5,5-5c2.8,0,5,2.2,5,5c0,2.8-2.2,5-5,5
	C45.2,75.4,43,73.2,43,70.4z M67.5,70.4c0-2.8,2.2-5,5-5c2.8,0,5,2.2,5,5c0,2.8-2.2,5-5,5C69.7,75.4,67.5,73.2,67.5,70.4z
	 M55.3,82.6c0-2.8,2.2-5,5-5c2.8,0,5,2.2,5,5c0,2.8-2.2,5-5,5S55.3,85.4,55.3,82.6z M55.3,58.1c0-2.8,2.2-5,5-5c2.8,0,5,2.2,5,5
	c0,2.8-2.2,5-5,5S55.3,60.9,55.3,58.1z"/>
</svg>
